<?xml version="1.0" standalone="no"?>
<!DOCTYPE svg PUBLIC "-//W3C//DTD SVG 20010904//EN"
 "http://www.w3.org/TR/2001/REC-SVG-20010904/DTD/svg10.dtd">
<svg version="1.0" xmlns="http://www.w3.org/2000/svg"
 width="1192.000000pt" height="1280.000000pt" viewBox="0 0 1192.000000 1280.000000"
 preserveAspectRatio="xMidYMid meet">
<metadata>
Created by potrace 1.15, written by Peter Selinger 2001-2017
</metadata>
<g transform="translate(0.000000,1280.000000) scale(0.100000,-0.100000)"
fill="#000000" stroke="none">
<path d="M5415 12409 c-272 -20 -774 -85 -1004 -129 -29 -5 -173 -14 -320 -20
-146 -5 -302 -12 -346 -15 -44 -2 -132 -5 -195 -6 l-115 -1 -150 -78 c-315
-163 -661 -380 -938 -589 -633 -476 -1048 -964 -1252 -1470 -25 -63 -59 -138
-75 -165 -43 -76 -132 -277 -178 -401 -131 -352 -169 -627 -117 -854 22 -93
16 -314 -9 -406 -43 -154 -136 -278 -252 -336 l-49 -24 85 -3 c171 -6 342 24
414 73 20 14 39 25 41 25 9 0 84 -158 119 -252 127 -341 134 -655 21 -897 -19
-40 -35 -74 -35 -76 0 -6 123 18 185 36 145 43 245 113 288 199 l25 51 8 -68
c13 -109 10 -490 -4 -558 -22 -102 -55 -185 -90 -226 -18 -21 -31 -39 -29 -39
3 0 42 15 86 34 119 50 208 103 262 155 l49 47 7 -35 c5 -20 8 -112 8 -206 l0
-170 -32 -67 c-36 -76 -88 -121 -153 -132 -22 -3 -40 -9 -40 -12 0 -26 130
-94 180 -94 90 1 171 73 210 188 13 39 27 72 31 72 15 0 31 -61 45 -169 81
-618 329 -1234 664 -1650 95 -118 277 -295 388 -380 177 -134 378 -240 593
-314 l124 -42 37 -113 c38 -114 79 -293 77 -341 0 -21 -15 -36 -87 -83 -95
-62 -220 -166 -221 -184 -1 -6 -8 -18 -18 -25 -9 -8 -29 -41 -45 -74 -16 -34
-28 -51 -28 -39 0 11 10 41 23 66 l23 46 -95 -74 c-53 -40 -436 -338 -851
-661 l-755 -588 -63 -240 c-34 -132 -111 -432 -171 -667 l-109 -428 5165 0
c4721 0 5165 1 5159 16 -3 9 -111 172 -239 362 -1188 1767 -2009 2738 -2340
2768 -23 3 -283 13 -577 24 -294 11 -591 22 -660 25 -69 2 -190 7 -270 10
-375 14 -381 14 -432 46 -87 52 -277 121 -402 145 -26 4 -38 13 -41 28 -3 11
-14 60 -25 108 -45 199 -62 370 -58 578 3 174 2 196 -12 193 -9 -2 39 51 105
119 123 127 262 291 289 342 l15 29 5 -24 c4 -13 12 -55 20 -93 13 -63 19 -74
72 -127 32 -32 61 -55 65 -51 3 4 55 122 114 264 l107 256 576 358 c574 357
576 359 542 368 -51 15 -114 83 -140 152 -16 43 -22 83 -24 146 0 47 2 89 5
92 4 4 40 -2 80 -14 223 -62 438 -17 528 109 l21 30 -61 32 c-86 46 -198 154
-232 222 -22 46 -49 167 -36 167 2 0 32 -9 66 -20 132 -41 270 -36 380 15 70
32 168 131 211 211 17 34 32 64 32 67 0 2 -42 2 -94 -1 -162 -8 -277 42 -326
144 -12 25 -20 47 -18 50 3 2 19 -1 37 -7 19 -7 74 -10 134 -7 90 3 110 7 172
36 38 18 93 52 123 74 99 77 210 248 275 423 46 126 48 122 -33 70 -320 -208
-566 -149 -654 155 -9 30 -38 215 -66 410 -50 350 -66 456 -136 880 -36 222
-136 775 -180 1005 -27 141 -54 204 -176 409 -305 510 -671 922 -1024 1153
-101 66 -254 142 -356 178 -70 25 -79 31 -98 69 -25 48 -95 123 -160 171 -145
107 -390 188 -700 231 -136 19 -707 27 -895 13z m2072 -7024 c44 -42 71 -75
62 -75 -9 0 -46 34 -83 75 -37 41 -65 75 -63 75 3 0 41 -34 84 -75z m-3848
-3121 c40 -59 39 -63 -6 -23 -41 35 -47 48 -56 124 l-7 50 20 -53 c10 -29 33
-73 49 -98z"/>
</g>
</svg>
