<?xml version="1.0" standalone="no"?>
<!DOCTYPE svg PUBLIC "-//W3C//DTD SVG 20010904//EN"
 "http://www.w3.org/TR/2001/REC-SVG-20010904/DTD/svg10.dtd">
<svg version="1.0" xmlns="http://www.w3.org/2000/svg"
 width="640.000000pt" height="1280.000000pt" viewBox="0 0 640.000000 1280.000000"
 preserveAspectRatio="xMidYMid meet">
<metadata>
Created by potrace 1.15, written by Peter Selinger 2001-2017
</metadata>
<g transform="translate(0.000000,1280.000000) scale(0.100000,-0.100000)"
fill="#000000" stroke="none">
<path d="M2731 12785 c-246 -56 -450 -267 -502 -518 -10 -51 -19 -124 -19
-164 0 -70 -10 -95 -41 -105 -30 -10 -41 -290 -13 -356 18 -44 62 -92 84 -92
12 0 25 -35 54 -150 22 -83 37 -152 35 -155 -3 -2 -38 -8 -79 -13 -55 -7 -94
-19 -143 -46 -58 -30 -78 -36 -132 -36 -68 0 -135 -23 -135 -47 0 -7 24 -62
54 -121 29 -59 61 -129 71 -157 11 -27 25 -60 33 -73 16 -25 16 -25 -143 -84
-88 -32 -326 -138 -450 -201 -153 -77 -265 -168 -320 -260 -13 -24 -36 -91
-50 -150 -14 -59 -44 -149 -67 -200 l-42 -92 -7 -280 c-6 -254 -9 -290 -33
-390 -68 -287 -110 -572 -136 -919 -14 -188 -13 -571 1 -721 l12 -121 -31
-105 c-41 -140 -45 -177 -27 -293 8 -55 15 -157 15 -227 0 -70 5 -150 11 -178
9 -41 8 -55 -7 -83 -22 -43 -22 -131 1 -286 18 -118 21 -125 57 -167 22 -25
63 -55 94 -70 30 -14 52 -30 49 -36 -4 -5 -3 -57 1 -116 7 -105 7 -106 35
-117 23 -8 28 -15 22 -31 -3 -11 -6 -46 -6 -77 0 -68 37 -151 108 -241 118
-149 214 -153 397 -17 64 47 68 52 68 89 0 22 -5 43 -10 46 -7 4 0 17 16 31
25 24 26 29 23 109 -3 59 -1 79 6 67 6 -10 10 -92 10 -187 l0 -169 34 -23 c19
-13 60 -33 92 -44 l59 -22 0 -92 c0 -51 7 -129 15 -172 29 -147 36 -269 24
-440 -10 -150 -8 -180 16 -400 14 -134 37 -280 50 -335 21 -83 25 -120 25
-256 0 -88 -5 -184 -11 -213 -18 -88 -14 -432 5 -509 16 -63 16 -68 -9 -185
-68 -324 -30 -629 110 -875 30 -52 70 -131 90 -175 52 -114 64 -125 141 -125
59 0 64 -2 78 -28 20 -40 34 -121 46 -271 18 -235 16 -255 -36 -399 -66 -182
-93 -237 -162 -328 -65 -85 -87 -134 -98 -214 -8 -60 16 -100 75 -124 62 -24
246 -40 481 -40 202 0 221 2 312 27 107 29 197 66 214 88 9 10 10 79 6 242
l-5 228 -43 67 c-24 36 -44 71 -44 77 0 5 6 93 14 195 8 102 18 247 21 322 l7
137 45 62 c25 34 59 90 75 125 36 77 68 225 68 317 0 173 -126 555 -229 691
-76 101 -76 96 7 291 115 273 142 381 149 605 6 189 -4 306 -48 517 -25 121
-29 165 -29 295 1 232 26 446 50 422 14 -14 106 -282 155 -450 24 -83 49 -191
55 -240 38 -301 38 -302 233 -669 l122 -230 -3 -188 c-3 -187 -3 -190 28 -290
64 -206 235 -607 301 -704 18 -27 81 -98 141 -159 l108 -110 -10 -75 c-5 -40
-10 -131 -10 -202 l0 -127 31 -19 c17 -10 60 -22 95 -26 72 -7 80 -15 109
-100 37 -110 97 -364 102 -431 5 -66 4 -74 -30 -137 -44 -82 -53 -153 -37
-279 23 -181 42 -196 295 -239 151 -25 433 -40 593 -30 162 9 168 14 165 143
-3 122 -21 156 -131 254 -159 141 -204 206 -222 320 -6 38 -33 161 -60 274
-73 302 -73 276 1 329 80 58 104 106 104 211 0 70 -3 80 -44 154 -40 72 -43
84 -38 130 3 28 24 107 47 176 40 117 42 134 47 267 6 162 -3 219 -68 418 -37
116 -49 139 -114 220 -23 29 -29 47 -28 79 9 323 7 344 -63 591 -54 188 -173
543 -206 613 -17 35 -56 96 -88 136 l-57 72 26 50 c34 64 32 119 -9 249 -46
146 -47 172 -14 321 24 108 28 152 29 274 0 89 -5 169 -14 208 l-14 63 35 32
c45 41 63 78 77 152 24 129 11 284 -46 539 l-35 161 17 105 c14 84 15 114 6
147 -6 23 -16 45 -21 48 -19 12 -10 44 20 69 18 14 74 39 131 56 165 51 187
81 279 385 65 213 94 275 210 450 110 165 120 187 120 258 0 44 6 62 29 95 16
22 34 43 40 47 6 3 11 37 11 76 0 83 20 139 49 139 12 0 31 10 42 21 20 20 21
29 16 93 -4 40 -22 126 -42 192 -20 65 -53 188 -75 273 -22 85 -48 163 -57
174 -10 11 -41 30 -70 42 -28 13 -58 34 -67 47 -8 13 -42 89 -75 168 -110 270
-163 384 -317 685 -84 165 -165 332 -179 370 -56 149 -92 203 -220 330 -81 82
-138 129 -175 148 l-54 27 -230 0 c-209 0 -423 12 -468 26 -25 8 -24 113 2
239 23 111 25 176 8 193 -16 16 -65 15 -124 -4 -56 -17 -258 -31 -267 -18 -3
5 12 51 33 103 34 86 39 94 66 97 35 4 69 41 84 92 6 20 17 88 26 149 16 123
11 153 -27 153 -17 0 -20 5 -16 23 19 78 26 188 17 261 -37 295 -188 496 -429
572 -68 22 -233 27 -310 9z"/>
</g>
</svg>
