<?xml version="1.0" standalone="no"?>
<!DOCTYPE svg PUBLIC "-//W3C//DTD SVG 20010904//EN"
 "http://www.w3.org/TR/2001/REC-SVG-20010904/DTD/svg10.dtd">
<svg version="1.0" xmlns="http://www.w3.org/2000/svg"
 width="1280.000000pt" height="997.000000pt" viewBox="0 0 1280.000000 997.000000"
 preserveAspectRatio="xMidYMid meet">
<metadata>
Created by potrace 1.15, written by Peter Selinger 2001-2017
</metadata>
<g transform="translate(0.000000,997.000000) scale(0.100000,-0.100000)"
fill="#000000" stroke="none">
<path d="M5731 9942 c-16 -24 -31 -31 -72 -36 -122 -16 -244 -81 -333 -176
-56 -59 -94 -134 -111 -217 -7 -35 -20 -73 -27 -82 -7 -10 -27 -37 -45 -61
-66 -86 -95 -232 -63 -315 31 -80 99 -135 168 -135 39 0 49 6 101 55 32 30 61
55 66 55 4 0 31 -25 60 -54 l52 -55 -53 -58 -53 -57 -30 28 c-29 28 -30 28
-81 15 -29 -8 -68 -27 -91 -47 -33 -28 -39 -39 -39 -73 0 -39 0 -39 40 -39 22
0 57 7 77 15 49 20 57 19 95 -13 18 -16 42 -32 52 -36 10 -3 17 -8 15 -10
-143 -122 -159 -143 -159 -215 -1 -31 -7 -67 -15 -81 -18 -32 -18 -80 0 -104
18 -24 5 -36 -42 -36 -25 0 -45 -12 -92 -58 -34 -32 -61 -62 -61 -68 0 -6 -16
-25 -35 -44 -29 -28 -35 -41 -35 -77 0 -23 9 -65 19 -93 l19 -50 -46 -38 c-74
-61 -415 -318 -449 -339 -16 -10 -49 -29 -71 -43 -35 -21 -42 -30 -42 -57 0
-32 41 -93 63 -93 16 0 127 79 127 91 0 12 401 312 420 313 25 2 24 -42 -2
-82 -31 -49 -48 -88 -48 -114 0 -18 4 -20 33 -15 17 4 42 9 54 13 19 5 26 -2
53 -57 41 -80 120 -158 200 -199 l63 -32 86 40 c47 23 123 49 169 58 75 16 87
22 116 56 18 21 37 38 42 38 18 -1 219 -187 228 -212 11 -31 0 -79 -17 -73 -6
3 -28 28 -47 57 -44 64 -68 80 -108 72 -28 -6 -33 -14 -57 -78 -25 -68 -25
-75 -12 -114 8 -23 12 -42 8 -42 -3 0 -30 16 -60 35 -82 52 -143 62 -244 41
-45 -10 -95 -25 -112 -33 -16 -9 -59 -19 -96 -23 -37 -4 -91 -19 -120 -33 -30
-14 -70 -32 -91 -40 -72 -30 -153 -91 -260 -195 -103 -100 -108 -107 -108
-146 0 -23 7 -61 16 -85 8 -24 12 -46 9 -49 -3 -3 -30 -9 -61 -13 -34 -5 -70
-17 -92 -33 -81 -57 -137 -106 -149 -130 -11 -21 -21 -26 -52 -26 -73 0 -303
-41 -342 -60 -46 -24 -96 -72 -139 -135 -57 -83 -70 -122 -70 -218 l0 -88 -57
-25 c-32 -14 -97 -45 -145 -70 -65 -33 -98 -44 -132 -44 -35 0 -46 4 -46 15 0
19 40 35 86 35 26 0 44 8 65 29 56 56 29 165 -48 198 -21 8 -80 17 -133 20
-77 4 -106 1 -150 -14 l-54 -20 -48 30 c-61 38 -95 34 -213 -24 -103 -51 -120
-72 -119 -148 1 -66 21 -109 66 -145 40 -31 31 -41 -48 -50 -86 -10 -234 -62
-268 -95 -17 -15 -56 -44 -86 -64 -89 -58 -260 -209 -316 -278 -111 -138 -177
-271 -215 -437 -16 -70 -22 -145 -29 -392 -9 -306 -15 -375 -32 -397 -6 -7
-35 -24 -67 -39 -184 -86 -262 -132 -377 -219 -23 -17 -61 -38 -85 -45 -42
-14 -93 -57 -167 -142 -18 -21 -41 -38 -52 -38 -11 0 -57 -19 -102 -42 l-83
-42 -145 0 c-80 -1 -162 3 -182 7 -36 7 -38 6 -38 -16 0 -68 81 -104 245 -111
l110 -5 -2 -27 c-2 -30 -29 -64 -50 -64 -31 0 -72 -32 -97 -73 -14 -25 -33
-48 -42 -51 -13 -5 -15 -14 -10 -46 6 -37 4 -40 -26 -55 -18 -8 -87 -58 -153
-110 -153 -121 -163 -125 -316 -95 -97 19 -122 20 -152 11 -81 -27 -131 -91
-132 -168 0 -63 16 -69 60 -23 16 16 38 30 49 30 11 0 33 5 50 11 25 9 55 6
160 -15 71 -14 142 -26 158 -26 16 0 76 16 135 35 59 19 110 32 115 29 4 -3 8
-20 8 -37 0 -18 4 -49 9 -69 7 -31 5 -42 -16 -72 -21 -29 -27 -51 -33 -138 -9
-124 -16 -141 -85 -234 -58 -77 -61 -84 -45 -114 9 -18 13 -18 50 -5 85 30
157 111 186 211 13 46 21 55 73 88 32 20 74 53 92 73 50 57 114 162 136 223
l21 55 103 53 c57 29 119 64 138 77 41 30 71 33 71 6 0 -20 -46 -65 -109 -107
-49 -32 -61 -60 -71 -160 -5 -56 -14 -93 -28 -116 -24 -39 -102 -84 -192 -113
-80 -25 -109 -57 -123 -132 -9 -44 5 -48 33 -11 l23 31 18 -21 17 -22 36 21
c33 19 41 20 85 9 54 -13 67 -9 130 39 19 14 61 40 95 56 76 38 106 79 106
146 0 73 12 93 67 113 122 46 152 77 199 206 51 143 65 163 151 213 59 35 107
53 198 75 196 48 221 64 436 283 103 104 192 189 198 189 6 0 8 -11 5 -29 l-6
-28 64 2 c99 4 130 22 142 81 8 34 31 59 87 92 55 33 118 106 146 170 19 43
27 84 34 172 5 63 9 116 9 118 0 6 42 0 89 -14 49 -14 54 -19 77 -69 13 -30
54 -146 92 -257 86 -254 112 -319 174 -438 57 -112 83 -216 74 -303 -10 -101
-143 -395 -199 -441 -8 -6 -28 -32 -45 -58 -35 -51 -99 -118 -168 -175 -60
-49 -74 -79 -74 -158 0 -56 6 -76 39 -143 21 -42 45 -97 54 -122 58 -173 135
-357 176 -425 151 -247 288 -570 361 -846 32 -123 38 -135 99 -211 51 -64 75
-72 118 -38 15 12 41 20 63 20 31 0 45 -8 83 -47 26 -26 47 -54 47 -62 0 -8
-11 -29 -25 -47 -30 -39 -32 -70 -6 -84 12 -6 124 -10 294 -10 258 0 275 1
291 19 22 25 14 84 -20 152 -27 55 -56 75 -124 90 -38 8 -70 26 -123 69 -112
90 -126 105 -157 174 -19 44 -53 91 -104 145 -61 66 -85 102 -134 203 -69 143
-164 384 -188 478 -14 54 -16 97 -11 260 7 228 17 294 53 368 34 69 141 174
254 248 48 32 127 99 183 156 54 54 102 96 106 93 22 -13 33 -111 28 -229 -6
-122 -13 -156 -63 -297 -22 -64 -25 -86 -20 -133 7 -49 13 -62 55 -105 42 -43
60 -53 137 -76 49 -15 152 -52 229 -82 95 -38 167 -60 228 -69 169 -25 411
-112 676 -242 30 -15 87 -59 128 -99 41 -40 99 -86 129 -104 l55 -31 30 28
c30 29 31 29 45 9 37 -50 25 -90 -36 -115 -53 -22 -62 -49 -54 -156 6 -88 5
-98 -15 -124 -23 -32 -28 -69 -8 -74 6 -2 35 -9 62 -15 28 -7 86 -33 130 -60
44 -26 115 -67 157 -89 76 -41 79 -42 175 -42 54 0 103 4 109 8 25 17 32 47
22 97 -5 28 -11 111 -11 186 -2 152 6 130 -89 236 -67 77 -100 139 -158 308
-98 282 -97 282 -410 400 -91 35 -225 86 -299 114 -175 67 -336 151 -404 211
-102 92 -161 266 -137 404 19 109 28 141 82 286 39 105 53 160 64 250 18 144
37 199 73 211 15 5 35 24 44 42 10 17 37 46 60 62 37 26 50 30 107 29 47 -1
83 -8 130 -29 185 -79 257 -105 388 -144 262 -78 295 -83 602 -88 310 -5 467
9 722 67 213 49 217 50 353 63 120 12 158 11 272 -8 23 -4 34 -13 42 -35 l10
-30 96 0 c53 0 104 4 114 9 12 7 31 5 60 -5 23 -8 101 -30 174 -50 107 -29
156 -36 262 -41 86 -4 135 -10 145 -19 9 -7 35 -55 59 -106 139 -296 200 -413
272 -525 87 -134 160 -279 178 -355 6 -26 11 -71 11 -101 0 -50 5 -62 65 -152
36 -53 81 -125 101 -159 19 -33 52 -86 74 -116 54 -76 162 -355 211 -543 11
-43 23 -118 28 -166 4 -48 15 -100 24 -116 9 -17 25 -49 37 -71 27 -53 55 -78
104 -94 35 -11 41 -11 52 5 7 10 15 22 16 27 10 28 106 -41 135 -96 13 -26 13
-30 -4 -50 -40 -44 -53 -76 -53 -126 l0 -50 561 0 562 0 28 30 c16 16 29 39
29 50 0 12 -49 69 -128 147 -89 90 -137 146 -159 189 -32 61 -62 84 -106 84
-41 0 -143 57 -206 115 -78 73 -115 127 -145 210 -26 70 -39 91 -134 210 -46
58 -91 136 -162 280 -134 272 -150 314 -159 415 -5 47 -15 103 -24 125 -9 22
-28 90 -42 150 -15 61 -39 135 -55 165 -15 30 -44 87 -64 125 -74 146 -165
458 -206 707 -28 172 -27 176 27 260 26 40 66 120 88 178 23 58 65 150 93 205
64 123 85 204 86 318 0 48 4 87 9 87 5 0 29 16 53 36 53 44 56 70 16 123 -26
32 -29 44 -30 119 -1 88 3 95 45 62 35 -27 67 -27 35 0 -23 19 -23 22 -11 74
8 39 9 66 1 95 -6 24 -6 43 -1 47 5 3 9 16 9 28 0 13 10 31 23 40 l22 16 -22
16 c-28 20 -30 44 -4 44 13 0 21 -8 23 -22 2 -14 14 -26 31 -32 24 -9 32 -6
68 30 l42 39 -7 -35 c-5 -32 -4 -33 8 -17 8 11 17 38 21 60 24 157 28 170 46
174 10 3 28 20 39 38 22 36 172 175 189 175 6 0 11 9 11 20 0 11 7 20 15 20
49 0 -21 -140 -114 -230 l-68 -65 1 -65 1 -65 58 -30 c41 -22 66 -43 87 -77
32 -49 64 -75 96 -78 52 -6 69 2 120 55 47 48 58 55 93 55 70 0 101 12 152 58
73 65 266 287 367 422 48 63 126 156 174 207 163 174 291 360 526 768 l40 70
74 24 c170 53 203 68 243 112 43 48 55 92 55 210 0 113 -16 169 -67 229 l-36
41 21 27 c53 66 122 175 116 183 -9 15 -18 11 -78 -36 -54 -42 -104 -61 -140
-53 -14 3 -14 7 3 43 10 22 28 69 39 105 11 36 29 86 39 112 9 26 14 50 10 54
-4 4 -33 -20 -65 -54 -31 -34 -62 -62 -67 -62 -6 0 -32 7 -59 15 -73 22 -81
20 -110 -30 -17 -28 -34 -45 -46 -45 -39 0 -35 45 7 61 31 12 37 29 28 86 -6
42 -16 57 -88 131 -106 109 -174 157 -327 229 -143 69 -417 172 -535 202 -253
64 -608 95 -842 72 -115 -11 -377 -76 -593 -148 -292 -97 -564 -243 -790 -424
-132 -106 -373 -336 -471 -449 -45 -52 -140 -155 -210 -229 -99 -102 -133
-132 -146 -127 -32 12 -83 51 -83 63 0 25 32 43 75 43 57 0 82 31 70 88 -4 20
-8 48 -8 63 0 23 -5 26 -63 37 -35 7 -70 12 -79 12 -26 0 -55 -38 -55 -71 0
-33 -34 -99 -52 -99 -5 0 -136 87 -291 193 -154 105 -285 195 -291 199 -7 4
-5 16 4 34 9 16 15 55 15 95 0 110 -47 152 -188 168 -41 5 -95 16 -120 26
l-45 17 -41 124 c-22 68 -61 167 -85 221 -25 54 -50 117 -56 140 -22 88 -237
265 -446 369 -73 35 -137 71 -144 79 -6 7 -34 21 -61 30 -40 14 -49 21 -49 40
0 20 -8 26 -42 36 -24 7 -47 16 -53 21 -14 13 22 38 53 38 15 0 36 13 55 36
18 20 49 47 70 60 44 29 46 45 12 108 -14 26 -25 49 -25 51 0 2 16 7 36 11 19
4 38 13 42 22 3 9 -11 45 -31 82 -67 122 -69 113 30 150 100 38 161 91 181
156 18 61 15 94 -13 150 -32 65 -84 114 -170 161 -47 26 -76 50 -90 73 -78
134 -323 266 -534 287 -51 5 -71 12 -97 35 l-32 29 -21 -29z m2099 -3116 c244
-179 300 -224 300 -243 0 -13 -3 -23 -6 -23 -4 0 -79 44 -168 98 -88 55 -235
143 -326 197 -91 54 -173 106 -184 115 -18 18 -18 19 11 34 17 8 33 23 37 31
3 9 13 15 21 13 8 -2 150 -102 315 -222z m230 -366 c34 -25 21 -33 -50 -31
-45 1 -84 -7 -155 -31 l-96 -32 -87 18 c-76 16 -142 39 -142 50 0 2 7 23 15
47 20 56 11 64 -55 50 -51 -11 -53 -11 -101 25 -42 31 -80 86 -79 113 1 3 25
24 55 46 l54 40 -6 74 -6 74 314 -212 c173 -116 325 -220 339 -231z m-2276
-202 c-4 -7 -15 -24 -24 -38 -75 -112 -97 -151 -110 -190 -14 -42 -18 -45 -57
-51 -23 -3 -51 -13 -61 -22 -20 -18 -97 -24 -107 -7 -3 5 45 47 107 94 62 46
144 116 183 155 69 71 83 82 69 59z m5008 -195 c5 -23 -25 -171 -51 -250 -11
-34 -23 -79 -26 -100 -28 -174 -61 -233 -130 -233 -31 0 -80 -32 -97 -63 -7
-12 -13 -54 -14 -94 -1 -44 -8 -86 -18 -108 -27 -56 -14 -99 45 -159 52 -51
58 -71 40 -134 -14 -46 -71 -116 -84 -103 -6 6 -19 11 -28 11 -9 0 -19 7 -23
15 -3 9 -18 15 -40 15 -32 0 -36 4 -72 74 l-39 75 72 148 c92 191 98 208 200
506 47 139 94 274 106 301 33 78 149 149 159 99z m-7467 -928 c0 -17 -41 -17
-55 0 -12 15 -10 16 21 13 19 -2 34 -7 34 -13z m6998 -295 c3 -13 0 -20 -9
-20 -8 0 -14 9 -14 20 0 11 4 20 9 20 5 0 11 -9 14 -20z m127 -40 c0 -5 -7 -7
-15 -4 -8 4 -15 8 -15 10 0 2 7 4 15 4 8 0 15 -4 15 -10z m-130 -10 c0 -5 -4
-10 -10 -10 -5 0 -10 5 -10 10 0 6 5 10 10 10 6 0 10 -4 10 -10z m10 -60 c0
-26 -4 -30 -26 -30 -20 0 -25 4 -20 16 3 9 6 22 6 30 0 8 9 14 20 14 16 0 20
-7 20 -30z m-61 -93 c0 -33 -2 -38 -9 -22 -12 28 -12 78 0 70 6 -3 10 -25 9
-48z m59 10 c2 -12 -3 -17 -17 -17 -15 0 -21 6 -21 21 0 25 33 22 38 -4z m2
-67 c0 -21 -8 -24 -34 -14 -25 10 -19 34 9 34 18 0 25 -5 25 -20z m-26 -46 c4
-9 4 -19 2 -21 -8 -8 -26 8 -26 23 0 19 16 18 24 -2z m-304 -1036 c-7 -18 -29
-59 -49 -91 -39 -62 -64 -70 -69 -23 -3 24 7 39 59 92 35 35 65 61 67 59 3 -2
-1 -19 -8 -37z m-1351 -479 c65 -12 81 -21 81 -48 0 -10 -10 -12 -47 -6 -61 9
-171 43 -178 55 -8 13 63 13 144 -1z m287 -7 c13 -9 44 -54 44 -64 0 -5 -26
-8 -57 -8 l-58 0 -2 40 c-1 39 0 40 30 40 18 0 37 -4 43 -8z m1724 -2497 c7
-8 8 -15 2 -15 -5 0 -15 7 -22 15 -7 8 -8 15 -2 15 5 0 15 -7 22 -15z"/>
</g>
</svg>
